<?xml version="1.0" encoding="UTF-8"?><svg id="a" xmlns="http://www.w3.org/2000/svg" viewBox="0 0 1024 1024"><circle cx="511.858" cy="512" r="238.669" fill="#148fcf"/><circle cx="512" cy="512" r="238.669" fill="none" stroke="#fff" stroke-miterlimit="10" stroke-width="4"/><path d="M312.572,643.133c175.122-16.108,315.465-152.321,337.918-325.53-39.053-27.871-86.855-44.272-138.49-44.272-131.813,0-238.669,106.856-238.669,238.669,0,48.44,14.445,93.499,39.241,131.133Z" fill="none" stroke="#fcfafc" stroke-miterlimit="10" stroke-width="10"/><path d="M548.498,276.106c-86.287,43.395-145.499,132.723-145.499,235.894s59.212,192.499,145.499,235.894c114.488-17.569,202.171-116.491,202.171-235.894s-87.683-218.325-202.171-235.894Z" fill="none" stroke="#fcfafc" stroke-miterlimit="10" stroke-width="10"/><path d="M450.418,334.73c-46.887,0-90.908,12.243-129.069,33.684-30.14,39.956-48.018,89.681-48.018,143.586,0,131.813,106.856,238.669,238.669,238.669,82.619,0,155.428-41.984,198.27-105.777,2.656-15.021,4.047-30.479,4.047-46.263,0-145.748-118.152-263.9-263.9-263.9Z" fill="none" stroke="#fcfafc" stroke-miterlimit="10" stroke-width="10"/><circle cx="402.999" cy="512" r="3.543" fill="#fff" stroke="#fcfafc" stroke-miterlimit="10" stroke-width="20"/><circle cx="564.686" cy="359.973" r="3.543" fill="#fff" stroke="#fcfafc" stroke-miterlimit="10" stroke-width="20"/><circle cx="614.002" cy="608.146" r="3.543" fill="#fff" stroke="#fcfafc" stroke-miterlimit="10" stroke-width="20"/><path d="M342.566,680.224c43.232,43.505,103.114,70.445,169.292,70.445,75.252,0,142.356-34.838,186.101-89.252-43.232-43.505-103.114-70.445-169.292-70.445-75.252,0-142.356,34.838-186.101,89.252Z" fill="none" stroke="#fcfafc" stroke-miterlimit="10" stroke-width="10"/><circle cx="511.858" cy="512" r="238.669" fill="none" stroke="#fff" stroke-miterlimit="10" stroke-width="12"/></svg>